<?xml version="1.0" encoding="utf-8"?>
<!-- Generator: Adobe Illustrator 27.1.1, SVG Export Plug-In . SVG Version: 6.00 Build 0)  -->
<svg version="1.1" id="Layer_1" xmlns="http://www.w3.org/2000/svg" xmlns:xlink="http://www.w3.org/1999/xlink" x="0px" y="0px"
	 viewBox="0 0 1050 200.3816833" style="enable-background:new 0 0 1050 200.3816833;" xml:space="preserve">
<style type="text/css">
	.st0{fill:#009CDE;}
	.st1{fill:#FFFFFF;}
	.st2{fill:#078142;}
	.st3{fill:#EA7726;}
</style>
<g>
	<path class="st0" d="M1015.1170654,200.3816833H34.8829117C15.6176109,200.3816833,0,184.7640686,0,165.498764V34.8829117
		C0,15.6176109,15.6176109,0,34.8829117,0h980.2341309C1034.3824463,0,1050,15.6176109,1050,34.8829117V165.498764
		C1050,184.7640686,1034.3824463,200.3816833,1015.1170654,200.3816833z"/>
	<g id="donate">
		<g>
			<path class="st1" d="M73.299202,107.6550522c0-13.125,6.8129807-21.4408417,17.2328186-21.4408417
				c5.9112625,0,10.6202316,3.1059189,12.8244324,7.7146912h0.2003784V76.2953262
				c0-3.3062973,2.0038147-5.1097336,4.809166-5.1097336c2.8053436,0,4.9093475,1.8034439,4.9093475,5.1097336v47.9914169
				c0,3.1059113-2.0038147,4.9093475-4.8091583,4.9093475c-2.8053513,0-4.9093552-1.7032394-4.9093552-4.9093475v-3.2061157
				h-0.2003784c-2.0038147,4.809166-6.4122162,8.015274-12.9246216,8.015274
				C80.0119858,129.0959015,73.299202,120.880249,73.299202,107.6550522z M103.5568314,107.6550522
				c0-8.1154556-4.007637-13.4255753-10.2194672-13.4255753c-6.3120193,0-10.2194595,5.2099228-10.2194595,13.4255753
				s3.9074478,13.4255753,10.2194595,13.4255753C99.5491943,121.0806274,103.5568314,115.8707047,103.5568314,107.6550522z"/>
			<path class="st1" d="M205.7514801,128.7953186c-3.3062897,0-5.2099152-2.0038147-5.2099152-5.7108765v-19.737587
				c0-5.4103088-2.7051544-8.5162201-7.5143127-8.5162201c-5.4102936,0-8.7165985,3.9074402-8.7165985,10.4198456v17.8339615
				c0,3.6068802-1.9036255,5.7108765-5.2099152,5.7108765c-3.3063049,0-5.2099304-2.0038147-5.2099304-5.7108765V92.0252838
				c0-3.4064865,2.0038147-5.510498,5.1097412-5.510498s4.9093475,1.8034439,5.0095367,5.2099228v2.5047684h0.5009613
				c1.6030579-4.9093475,6.312027-8.0152664,12.3234711-8.0152664c8.816803,0,13.8263397,5.2099228,13.8263397,14.3272934
				v22.5429382C210.8612213,126.7915039,209.057785,128.7953186,205.7514801,128.7953186z"/>
			<path class="st1" d="M232.302063,128.995697c-8.1154633,0-13.6259613-5.1097336-13.6259613-12.6240463
				c0-7.7146912,5.7108765-12.4236603,15.1288147-12.4236603h9.8187103v-3.4064941
				c0-4.2080078-2.6049652-6.4122162-7.3139343-6.4122162c-3.1059265,0-5.4102936,1.2022934-7.7146912,3.2061081
				c-1.2022858,0.9017181-2.3043976,1.4026718-3.9074402,1.4026718c-2.3043823,0-3.7070618-1.502861-3.7070618-3.6068649
				c0-2.4045868,1.7032471-4.9093552,5.3101196-6.7127838c2.6049805-1.4026794,6.1116486-2.1040115,10.6202393-2.1040115
				c10.9207916,0,17.0324402,5.2099228,17.0324402,14.3272934v22.7433243c0,3.5066833-1.8034363,5.5105057-5.0095367,5.5105057
				c-2.7051544,0-4.5085907-1.5028687-4.8091583-4.2080154v-1.4026794h-0.5009613
				C241.4194336,126.8917007,237.3115997,128.995697,232.302063,128.995697z M235.7085419,121.5815811
				c4.5085907,0,7.9150696-3.005722,7.9150696-7.0133591v-4.3082047h-8.015274
				c-4.2080078,0-6.7127686,2.0038147-6.7127686,5.4103012C228.8955841,119.177002,231.7009125,121.5815811,235.7085419,121.5815811
				z"/>
			<path class="st1" d="M266.667511,95.3315887h-2.1040344c-2.8053284,0-4.4083862-1.5028687-4.4083862-4.007637
				s1.6030579-4.007637,4.4083862-4.007637h2.3043823v-5.4103012c0-3.6068726,1.8034363-5.510498,5.009552-5.510498
				s5.009552,2.0038147,5.009552,5.510498v5.4103012h4.1078186c2.8053284,0,4.4083862,1.5028687,4.4083862,4.007637
				s-1.6030579,4.007637-4.4083862,4.007637h-4.0076294v20.9398804c0,3.8072586,1.0018921,5.0095444,4.1078186,5.0095444
				c1.1021118,0,1.8034363-0.2003784,2.7051697-0.2003784c1.8034363,0,3.0057373,1.2022858,3.0057373,3.1059189
				c0,1.502861-0.701355,2.8053436-2.1040344,3.7070541c-1.4026489,0.9017105-3.6068726,1.4026718-6.4122009,1.4026718
				c-8.2156677,0-11.7223206-3.4064865-11.7223206-11.9227142V95.3315887H266.667511z"/>
			<path class="st1" d="M291.71521,105.0500946c0-11.3215714,7.5143127-19.0362625,18.635498-19.0362625
				c10.52005,0,18.0343628,7.5143127,18.0343628,17.7337799c0,4.6087723-1.3024597,6.2118301-5.2099304,6.2118301h-21.0400696
				v1.8034363c0,5.8110733,3.7070618,9.5181274,9.8186646,9.5181274c3.2061157,0,5.510498-0.8015289,7.3139343-2.30439
				c2.0038147-1.502861,2.7051697-2.1040039,4.308197-2.1040039c2.1040039,0,3.6068726,1.502861,3.6068726,3.807251
				c0,1.8034363-1.1021118,3.6068726-3.1059265,5.009552c-2.7051697,2.30439-7.5143127,3.7070541-12.8244019,3.7070541
				c-12.1231079,0-19.6374207-7.1135483-19.6374207-18.9360657v-5.4103088H291.71521z M318.5663757,103.4470444
				L318.5663757,103.4470444c0-5.7108765-3.1059265-9.4179459-8.0152588-9.4179459
				c-5.1097412,0-8.3158264,3.8072586-8.3158264,9.3177567v0.1001892H318.5663757z"/>
			<path class="st1" d="M360.0453796,94.1292877c-0.3005676-1.2022858-0.4007568-1.9036255-0.4007568-2.5047684
				c0-2.9055328,2.1040039-5.0095444,5.2099304-5.0095444c2.7051697,0,4.508606,1.8034439,5.009552,5.1097336l5.2099304,25.9494324
				h0.500946l6.211853-24.5467606c1.202301-4.8091583,2.9055176-6.6125946,6.3120117-6.6125946
				s5.2099304,1.8034439,6.4122009,6.6125946l6.3120117,24.5467606h0.500946l5.4103088-25.9494324
				c0.6011658-3.2061005,2.4045715-5.1097336,5.009552-5.1097336c3.1059265,0,5.0095215,2.0038223,5.0095215,4.7089691
				c0,0.6011429-0.2003784,1.502861-0.500946,2.7051468l-7.2137451,26.5505753
				c-1.7032471,6.2118378-3.7070618,8.2156525-7.3139343,8.2156525c-3.9074097,0-5.9112549-2.0038147-7.5143127-8.2156448
				l-6.0114441-21.8416061h-0.4007568l-5.8110352,21.8416061c-1.6030884,6.312027-3.4064941,8.2156448-7.3139343,8.2156448
				c-3.807251,0-5.9112549-2.1040115-7.5143127-8.2156448L360.0453796,94.1292877z"/>
			<path class="st1" d="M427.5740051,70.9852066c3.4064636,0,5.9112549,2.3043976,5.9112549,5.4103088
				s-2.5047913,5.4103088-5.9112549,5.4103088c-3.3063049,0-5.8110657-2.3043976-5.8110657-5.4103088
				S424.2677002,70.9852066,427.5740051,70.9852066z M427.5740051,128.7953186
				c-3.2061157,0-5.1097412-2.0038147-5.1097412-5.7108765V92.2256622c0-3.807251,2.0038147-5.7108765,5.2099304-5.7108765
				s5.1097412,2.0038223,5.1097412,5.7108765v30.9589691C432.7839355,126.8917007,430.7801208,128.7953186,427.5740051,128.7953186z
				"/>
			<path class="st1" d="M444.7066345,95.3315887h-2.1040039c-2.8053284,0-4.4083862-1.5028687-4.4083862-4.007637
				s1.6030579-4.007637,4.4083862-4.007637h2.3043823v-5.4103012c0-3.6068726,1.8034058-5.510498,5.0095215-5.510498
				s5.009552,2.0038147,5.009552,5.510498v5.4103012h4.1078186c2.8053284,0,4.4084167,1.5028687,4.4084167,4.007637
				s-1.6030884,4.007637-4.4084167,4.007637h-4.0076294v20.9398804c0,3.8072586,1.0019226,5.0095444,4.1078491,5.0095444
				c1.1020813,0,1.8034058-0.2003784,2.7051392-0.2003784c1.8034363,0,3.0057373,1.2022858,3.0057373,3.1059189
				c0,1.502861-0.701355,2.8053436-2.1040039,3.7070541c-1.4026794,0.9017105-3.6068726,1.4026718-6.4122009,1.4026718
				c-8.2156677,0-11.7223511-3.4064865-11.7223511-11.9227142V95.3315887H444.7066345z"/>
			<path class="st1" d="M501.9156189,128.7953186c-3.3062744,0-5.2099304-2.0038147-5.2099304-5.7108765v-19.6373978
				c0-5.4103088-2.8053284-8.5162201-7.6145325-8.5162201c-5.3100891,0-8.8167725,4.0076294-8.8167725,10.4198456v17.8339691
				c0,3.6068802-1.9036255,5.7108841-5.2099304,5.7108841s-5.1097412-2.0038223-5.1097412-5.7108841V77.5978012
				c0-3.6068649,1.8034363-5.7108765,5.2099304-5.7108765c3.3063049,0,5.1097412,2.1040115,5.1097412,5.7108765v16.6316757h0.500946
				c1.4026794-4.7089615,6.5124207-8.0152664,12.4236755-8.0152664c8.6164246,0,13.8263245,5.4103088,13.8263245,14.4274826
				v22.442749C507.1255188,126.7915039,505.2218933,128.7953186,501.9156189,128.7953186z"/>
		</g>
		<path id="heart_2_" class="st1" d="M154.4537811,86.2142105c-4.3082123,0-8.5162201,2.1040115-10.8206177,6.7127838
			c-2.3043823-4.6087723-6.5124054-6.7127838-10.8206177-6.7127838c-6.7127762,0-12.7242279,4.7089691-12.7242279,13.125
			c0,14.2270966,19.4370117,21.4408417,23.5448456,29.9570694c4.1078339-8.5162277,23.5448456-15.7299652,23.5448456-29.9570694
			C167.178009,90.3220444,160.4652252,86.2142105,154.4537811,86.2142105z M150.3459473,96.2332993
			c3.005722,0,5.7108765,2.0038147,5.7108765,6.0114517c0,6.3120193-8.3158417,10.620224-12.8244324,15.2290039
			c-4.4083862-4.6087799-12.8244324-8.9169922-12.8244324-15.2290039c0-3.9074478,2.6049652-6.0114517,5.7108765-6.0114517
			c4.1078339,0,6.2118378,4.6087723,7.0133667,6.8129807C144.1341248,100.8420792,146.3383179,96.2332993,150.3459473,96.2332993z"
			/>
	</g>
	<g>
		<path class="st1" d="M578.0078125,148.5569305h2.8723145l-2.6911011,11.1074677
			c-0.4434204,1.2178955-0.3631592,2.5629425,0.2219849,3.7204742c0.7443848,0.9004211,1.9019165,1.3599701,3.0671387,1.2176819
			c1.3278198,0.0508881,2.628418-0.3822937,3.6561279-1.2176819c1.0488892-1.0009766,1.7567749-2.3015442,2.0250854-3.7204742
			l2.7183228-11.1074829h2.8859253l-2.7183228,11.3725891c-0.4056396,2.1512299-1.5367432,4.1017456-3.2075806,5.5312805
			c-1.7106323,1.299057-3.8278198,1.9592438-5.9802246,1.8647156c-2.4691162,0-4.1589966-0.5931244-5.0786743-1.7973175
			c-0.9196777-1.2042084-1.0873413-3.1003876-0.5209961-5.544754L578.0078125,148.5569305z"/>
		<path class="st1" d="M592.355835,166.8267517l4.5712891-18.9483185l8.6804199,11.174881
			c0.2310181,0.3145447,0.4530029,0.6335602,0.684082,0.9930267c0.2310791,0.3594513,0.453064,0.7773438,0.7339478,1.2221832
			l3.0580444-12.6442108h2.7183228l-4.5894165,18.934845l-8.8706665-11.3815613l-0.6795654-0.9525909
			c-0.2244263-0.3306885-0.4084473-0.6866455-0.5482178-1.0604095l-3.0671387,12.7160797h-2.6911011V166.8267517z"/>
		<path class="st1" d="M612.5527344,166.8267517l4.3900757-18.2698364h2.9266968l-4.3493042,18.2698364H612.5527344z"/>
		<path class="st1" d="M619.6339111,166.8267517l4.4353027-18.2698364h10.0123901l-0.6433105,2.5027771h-7.0811768
			l-1.0691528,4.5337677h7.0856323l-0.6342163,2.58815h-7.112915l-2.0658569,8.5597687h-2.9266968V166.8267517z"/>
		<path class="st1" d="M632.9172974,166.8267517l4.3809814-18.2698364h2.9266968l-4.3809814,18.2698364H632.9172974z"/>
		<path class="st1" d="M639.9802856,166.8267517l4.3900757-18.2698364h10.0123291l-0.5980225,2.5027771h-7.0856323
			l-1.0692139,4.5787048h7.0856934l-0.6387939,2.5836487h-7.1174316l-1.4225464,5.8907318h7.0856934l-0.6433716,2.6959991
			L639.9802856,166.8267517z"/>
		<path class="st1" d="M653.3678589,166.8267517l4.3900757-18.2698364h3.9324341
			c1.7918091-0.0723419,3.5859985,0.0633698,5.3460083,0.4044037c0.9024048,0.2313843,1.7323608,0.6823425,2.4147339,1.3120422
			c0.8403931,0.8414459,1.3988037,1.919342,1.5992432,3.0869141c0.2122803,1.4368744,0.1368408,2.9011536-0.2219849,4.3090973
			c-0.3842163,1.5274963-1.0194092,2.9818268-1.880127,4.3045807c-0.8100586,1.2309723-1.8701172,2.2808075-3.1124268,3.0824127
			c-0.9171143,0.6193542-1.9415283,1.0656586-3.0218506,1.3165436c-1.5595703,0.3193054-3.1519165,0.4535522-4.7434082,0.3999176
			h-4.7026978V166.8267517z M656.9379272,164.1038055h2.4691162c1.0401001,0.0256195,2.0797119-0.0663147,3.0988159-0.2740936
			c0.7036133-0.1786499,1.3684082-0.4831848,1.961731-0.8986664c0.836792-0.5911865,1.5403442-1.3486481,2.0658569-2.2241974
			c0.5823364-0.9510803,0.9974976-1.9933777,1.2277832-3.0823975c0.272583-0.9868927,0.3525391-2.0163574,0.2355957-3.0329895
			c-0.1085815-0.8230286-0.458313-1.5963745-1.0057983-2.2242126c-0.4312744-0.4527283-0.9901733-0.7659302-1.6037598-0.8986511
			c-1.0532837-0.2146606-2.1282349-0.3066406-3.203064-0.2740936h-2.1383667L656.9379272,164.1038055z"/>
		<path class="st1" d="M684.2159424,158.6039886l-1.9662476,8.2137756h-2.7182617l4.3809814-18.2698364h4.4353638
			c0.9492188-0.0265045,1.8985596,0.0488281,2.831543,0.2246704c0.5361938,0.0981445,1.031189,0.3513947,1.4225464,0.7279205
			c0.4828491,0.4587097,0.8010864,1.0615387,0.9061279,1.7164459c0.1189575,0.7869415,0.085144,1.5891724-0.0996704,2.3634949
			c-0.2079468,0.8556976-0.5701904,1.6670532-1.0692139,2.394928c-0.4584961,0.6853638-1.0498657,1.2734222-1.7396851,1.7299347
			c-0.5526123,0.3324127-1.1552124,0.5751343-1.7850342,0.7189331c-0.965271,0.1743927-1.9457397,0.2526703-2.9266968,0.2336426
			h-1.6898804L684.2159424,158.6039886z M685.0178223,156.177597h0.7294312
			c1.156189,0.0810699,2.3153687-0.1082306,3.3842773-0.5526886c0.6797485-0.426712,1.1455078-1.1188965,1.2821045-1.9051666
			c0.2813721-0.6928558,0.1369019-1.484375-0.37146-2.0354614c-0.9196777-0.4980774-1.9710083-0.7050476-3.0128174-0.5931244
			h-0.7293701L685.0178223,156.177597z"/>
		<path class="st1" d="M703.3209839,166.8267517l-0.9060669-4.7134857h-7.1400146l-3.2075806,4.7134857h-3.0626221
			l13.2697754-18.9483185l4.0774536,18.9483185H703.3209839z M697.0145874,159.6374359h4.9835205l-0.8245239-4.178772
			c-0.0506592-0.2970886-0.0794678-0.5974274-0.0861206-0.8986664c-0.0452881-0.3726654-0.0634766-0.7480774-0.0543213-1.1233368
			c-0.168457,0.3873901-0.3637695,0.7627258-0.5844727,1.1233368c-0.1626587,0.3317261-0.348877,0.6515503-0.557251,0.957077
			L697.0145874,159.6374359z"/>
		<path class="st1" d="M710.6196289,166.8267517l2.007019-8.3395996l-3.6516113-9.8852997h3.0626221l2.2879028,6.2097626
			c0.0487061,0.214325,0.1091919,0.425827,0.1812134,0.6335602c0.0860596,0.2740936,0.1404419,0.5392151,0.2265015,0.8177948
			l0.5437012-0.8177948c0.1947632-0.2740784,0.3760376-0.4987488,0.557251-0.7189331l5.3414307-6.1243896h2.9266968
			l-8.5490112,9.8313904l-1.9934692,8.3395844h-2.9266357L710.6196289,166.8267517z"/>
		<path class="st1" d="M738.4005737,157.7996826c0.0263672-0.3945618,0.0732422-0.7874908,0.1404419-1.1772461
			c0.008728-0.4403229,0.0541992-0.8791656,0.1358643-1.3120575c-0.1812134,0.4088898-0.3624268,0.8132782-0.5980225,1.2715912
			c-0.2422485,0.4428253-0.5162964,0.8677826-0.8200073,1.2716064l-7.0448608,9.7370453l-2.2652588-9.9212494
			c-0.098938-0.3911438-0.1776123-0.7870789-0.2355957-1.1862335c-0.0490723-0.3726196-0.0778198-0.7476196-0.0860596-1.1233368
			c-0.0951538,0.3594666-0.2355957,0.7638702-0.371521,1.2221832c-0.1505737,0.4498901-0.3338013,0.888382-0.5481567,1.3120575
			l-4.1137085,8.9866333h-2.6911011l8.8661499-18.9932404l2.5234985,11.520874
			c0.0581055,0.2971497,0.1004639,0.5971069,0.1268311,0.8986664c0.0474854,0.5342712,0.1261597,1.0653687,0.2355957,1.5906372
			c0.3216553-0.5392151,0.7248535-1.1772461,1.2821045-1.9905396c0.112854-0.1598663,0.2157593-0.3264313,0.3081055-0.4987488
			l7.9102173-11.520874l-0.2808838,19.0741425h-2.6911011L738.4005737,157.7996826z"/>
		<path class="st1" d="M743.2617798,166.8267517l4.3900146-18.2698364h9.9671021l-0.5663452,2.5342407h-7.1038208
			l-1.0510254,4.5786896h7.0675659l-0.638855,2.5836639h-7.0856323l-1.4226074,5.8907318h7.0856934l-0.6387939,2.6959839
			L743.2617798,166.8267517z"/>
		<path class="st1" d="M756.5632935,166.8267517l4.6165161-18.9483185l8.6895142,11.174881
			c0.2219849,0.3145447,0.4530029,0.6335602,0.684082,0.9930267c0.2310791,0.3594513,0.453064,0.7773438,0.7339478,1.2221832
			l3.0580444-12.6442108h2.6911621l-4.5803833,18.934845l-8.8480225-11.3815613l-0.6659546-0.9525909
			c-0.2299194-0.3288422-0.4171753-0.6851196-0.557251-1.0604095l-3.0671387,12.7160797h-2.7454834L756.5632935,166.8267517z"/>
		<path class="st1" d="M786.3648071,151.0596924l-3.7919922,15.7266235h-2.9266968l3.7919922-15.7266235h-4.757019
			l0.5980225-2.5342255h12.427124l-0.5844116,2.5342255H786.3648071z"/>
		<path class="st1" d="M789.4319458,163.1512146l2.5959473-1.0604095c-0.0170898,0.7001495,0.2661133,1.3746033,0.7792358,1.8557434
			c0.6135864,0.4578857,1.3721924,0.6826477,2.1384277,0.6335602c0.8081665,0.02388,1.598938-0.2354279,2.2335205-0.7324219
			c0.6362915-0.4812317,1.0769043-1.1733856,1.241333-1.9500885c0.2763672-1.0559387-0.3669434-2.0309753-1.9254761-2.8487701
			c-0.1584473-0.1070251-0.3268433-0.1988068-0.5028687-0.2740784c-1.300293-0.6110229-2.4296875-1.5290222-3.2891235-2.6735382
			c-0.4621582-0.8974609-0.5578613-1.937027-0.2672729-2.9026794c0.338623-1.4447937,1.177063-2.7262421,2.3694458-3.6216125
			c1.2246094-0.9346771,2.7316284-1.431839,4.2767334-1.4109039c1.1102295-0.0515747,2.2116699,0.2168579,3.1713867,0.7728424
			c0.7554321,0.5066528,1.2412109,1.323349,1.322876,2.2242126l-2.5778809,1.1772308
			c-0.1596069-0.4973755-0.4599609-0.9387512-0.8652954-1.2716064c-0.3977051-0.2756958-0.8741455-0.4174347-1.3591309-0.4044037
			c-0.7227783-0.0204468-1.4309082,0.2046814-2.007019,0.6380615c-0.5522461,0.4090881-0.9329834,1.0058594-1.0692139,1.6760101
			c-0.2808838,1.0559387,0.5029297,2.1163483,2.2652588,3.0824127c0.1036987,0.0659332,0.2111206,0.1259308,0.3216553,0.1797333
			c1.2233276,0.5278931,2.2800293,1.3740387,3.0581055,2.4488678c0.4750366,0.9240112,0.5739746,1.9937439,0.2763672,2.9880524
			c-0.3543701,1.6339264-1.2764282,3.0923767-2.6050415,4.1203766c-1.3478394,1.0253601-3.0041504,1.5713654-4.7026367,1.5502014
			c-1.2661133,0.0856323-2.5199585-0.2915955-3.5247192-1.0604248
			C789.8240967,165.5405426,789.3131714,164.357605,789.4319458,163.1512146z"/>
		<path class="st1" d="M810.965332,166.8267517l4.3809814-18.2698364h2.9266968l-4.3900757,18.2698364H810.965332z"/>
		<path class="st1" d="M818.078186,166.8267517l4.5758057-18.9483185l8.6984863,11.1074829
			c0.2220459,0.3190308,0.453064,0.6335602,0.6841431,0.9975128c0.2310791,0.3639679,0.453064,0.7728577,0.7248535,1.2176971
			l3.0671387-12.6441956h2.6911011l-4.5621948,18.9483185l-8.8570557-11.3815765l-0.6841431-0.9525757
			c-0.2299194-0.3288574-0.4171143-0.6851349-0.557251-1.0604248l-3.0535278,12.716095h-2.7182617L818.078186,166.8267517z"/>
		<path class="st1" d="M847.8389282,151.0596924l-3.7965088,15.7266235h-2.9266968l3.7919922-15.7266235h-4.7525024
			l0.5980225-2.5342255h12.427124l-0.5889282,2.5342255H847.8389282z"/>
		<path class="st1" d="M850.9876099,166.8267517l4.3945923-18.2698364h10.0531616l-0.5980225,2.5342407h-7.0856934
			l-1.0692139,4.5786896h7.0856934l-0.6296997,2.5836639h-7.0856934l-1.4180908,5.8907318h7.0720825l-0.6387329,2.6959839
			L850.9876099,166.8267517z"/>
		<path class="st1" d="M869.0461426,158.6039886l-1.9662476,8.1598663h-2.7454834l4.4217529-18.2563629h4.0774536
			c0.911438-0.022522,1.8226318,0.0512695,2.7183228,0.2201691c0.5692749,0.1027985,1.0946045,0.3719177,1.508606,0.7728577
			c0.461731,0.4687805,0.7642212,1.0688629,0.8653564,1.7164459c0.1272583,0.7693329,0.0980225,1.5561218-0.0861206,2.3140564
			c-0.2640381,1.3084869-0.9191895,2.5078278-1.880127,3.4418793c-0.9595337,0.8402557-2.1573486,1.3659821-3.4296265,1.5052643
			l4.1680908,8.2856903h-3.2937012l-3.9958496-8.1598663H869.0461426z M869.8253784,156.3573303h0.5482178
			c1.0963135,0.0881042,2.1973877-0.0972595,3.2030029-0.5392151c0.6605225-0.4565735,1.1040649-1.1611023,1.2277832-1.9500885
			c0.2355957-0.9975281,0.1404419-1.7164612-0.3171387-2.1208496c-0.8609619-0.5232544-1.8734741-0.7462311-2.8768311-0.6335602
			h-0.5436401L869.8253784,156.3573303z"/>
		<path class="st1" d="M878.3743896,166.8267517l4.3809814-18.2698364h10.0123291l-0.5028687,2.5027771h-7.0856323
			l-1.0646362,4.5337677h7.0811157l-0.6387939,2.58815h-7.1581421l-2.065918,8.5597687h-2.958374L878.3743896,166.8267517z"/>
		<path class="st1" d="M902.5445557,166.8267517l-0.9061279-4.7134857h-7.1400146l-3.203064,4.7134857h-3.0671387
			l13.2607422-18.9483185l4.1136475,19.002243L902.5445557,166.8267517z M896.2018433,159.6374359h4.9835815l-0.8291016-4.178772
			c-0.0616455-0.2957764-0.0950317-0.5966797-0.0996704-0.8986664c-0.022644-0.3740997-0.022644-0.7492218,0-1.1233368
			c-0.166687,0.3906708-0.3667603,0.7664795-0.5980225,1.1233368c-0.157959,0.3314667-0.3396606,0.6513214-0.5436401,0.957077
			L896.2018433,159.6374359z"/>
		<path class="st1" d="M924.621582,152.9963226c-0.6170654-0.6999817-1.3936157-1.2437744-2.2652588-1.5861511
			c-0.8788452-0.376709-1.8289795-0.5621033-2.7862549-0.5436859c-1.9191895-0.0074463-3.7780151,0.664978-5.2416992,1.8961792
			c-1.5447998,1.2791138-2.6186523,3.029892-3.0535889,4.9785919c-0.5200195,1.6466217-0.2865601,3.4365387,0.6387939,4.8977203
			c0.9259033,1.3030853,2.4748535,2.026825,4.0774536,1.9051666c1.0859985,0.0092926,2.1633301-0.1921997,3.1713257-0.5931244
			c1.1447754-0.4207153,2.2245483-0.9984741,3.2075806-1.7164459l-0.8607788,3.365509
			c-0.8882446,0.5692902-1.8603516,0.9982758-2.8814087,1.2716064c-1.0094604,0.2741699-2.0522461,0.4087372-3.0988159,0.3999176
			c-1.2559814,0.0282745-2.5040894-0.2027893-3.6652222-0.6784973c-1.0327759-0.4368286-1.9290771-1.1396027-2.5959473-2.0354767
			c-0.696167-0.8965454-1.1401367-1.9601746-1.2866821-3.0824127c-0.1902466-1.2705231-0.1130981-2.5663452,0.2265625-3.8058472
			c0.3193359-1.3335571,0.8614502-2.6047363,1.6037598-3.7608948c0.7363281-1.1837921,1.6799316-2.2276459,2.7862549-3.0824127
			c1.0565796-0.8885651,2.2658691-1.5811157,3.5700073-2.0444489c1.2422485-0.4514008,2.5551758-0.6810913,3.8781128-0.6784973
			c0.9942017-0.0154877,1.9837646,0.1364288,2.9266968,0.4493256c0.8873291,0.3298187,1.7058716,0.8187561,2.4147949,1.4423523
			L924.621582,152.9963226z"/>
		<path class="st1" d="M924.8979492,166.8267517l4.3809814-18.2698364h10.0032959l-0.6025391,2.5342407h-7.0811157
			l-1.0692139,4.5786896h7.0856934l-0.6433105,2.5836639h-7.0947876l-1.4226074,5.8907318h7.0993042l-0.6387939,2.6959839
			L924.8979492,166.8267517z"/>
		<path class="st1" d="M871.6964722,132.6505737h-20.0338135l27.8443604-99.8595123h20.0654907L871.6964722,132.6505737z"/>
		<path class="st1" d="M861.2808838,35.9363823c-1.3681641-1.9201469-3.5065918-2.8802185-6.4151611-2.8802185H744.5846558
			l-5.4365845,19.5818825h100.277771l-5.8533936,20.8984299H733.303772l-16.6359863,59.6038742h20.0655518l11.1449585-39.9905396
			h90.1838379c2.8986816-0.0197601,5.703125-1.0235519,7.9464722-2.8442688
			c2.3746948-1.7559586,4.095459-4.2431946,4.8929443-7.0724869l11.1449585-39.9905357
			C862.9254761,40.2185135,862.6445923,37.8145866,861.2808838,35.9363823z"/>
		<path class="st1" d="M704.9519653,126.3868866c-1.1116333,3.950058-4.7312622,6.6888123-8.8661499,6.7085266H592.6774902
			c-2.4545288,0.1797943-4.8320312-0.8941956-6.3063965-2.8487549c-1.418457-2.080246-1.7436523-4.7093658-0.8743896-7.0679932
			l25.2211914-90.0820618h20.0700684l-22.534668,80.5427399h80.2575684l22.5346069-80.5427399h20.0655518L704.9519653,126.3868866z"
			/>
		<polygon class="st2" points="934.2171631,32.9707909 959.583313,83.0128784 906.241394,133.0549774 		"/>
		<polygon class="st3" points="916.3942261,32.9707909 941.760437,83.0128784 888.3776855,133.0549774 		"/>
	</g>
</g>
</svg>
