<svg width="2427" height="778" viewBox="0 0 2427 778" fill="" xmlns="http://www.w3.org/2000/svg">
 <rect width="100%" height="100%" fill="#1f1e1e" />
<path d="M1664.49 516.006V351.994" stroke="white" stroke-width="54" stroke-linecap="round"/>
<path d="M2313.49 378L2169.49 377" stroke="white" stroke-width="54" stroke-linecap="round"/>
<path d="M1916.5 248.006L1837.49 246" stroke="white" stroke-width="54" stroke-linecap="round"/>
<path d="M1829.49 434L1830.52 133" stroke="white" stroke-width="54" stroke-linecap="round"/>
<path d="M86 508.996L256.492 97" stroke="white" stroke-width="59" stroke-linecap="round"/>
<path d="M259.104 96.5391L430.387 510.461" stroke="white" stroke-width="59" stroke-linecap="round"/>
<path d="M601.492 115.5C601.492 136.763 584.255 154 562.992 154C541.729 154 524.492 136.763 524.492 115.5C524.492 94.237 541.729 77 562.992 77C584.255 77 601.492 94.237 601.492 115.5Z" fill="white"/>
<path d="M562.492 512V240" stroke="white" stroke-width="58" stroke-linecap="round"/>
<path d="M845.492 376H703.492" stroke="white" stroke-width="50" stroke-linecap="round"/>
<path d="M1147.49 317.125L1265.49 316.996" stroke="white" stroke-width="54" stroke-linecap="round"/>
<path d="M1265.49 486V317" stroke="white" stroke-width="54" stroke-linecap="round"/>
<path d="M1694.49 377C1694.49 469.232 1619.72 544 1527.49 544C1435.26 544 1360.49 469.232 1360.49 377C1360.49 284.768 1435.26 210 1527.49 210C1619.72 210 1694.49 284.768 1694.49 377ZM1418.36 377C1418.36 437.273 1467.22 486.134 1527.49 486.134C1587.76 486.134 1636.63 437.273 1636.63 377C1636.63 316.727 1587.76 267.866 1527.49 267.866C1467.22 267.866 1418.36 316.727 1418.36 377Z" fill="white"/>
<path d="M1306.77 150.718C1318.2 139.29 1318.3 120.601 1305.58 110.632C1276.78 88.0653 1243.15 72.2249 1207.14 64.4554C1161.56 54.6208 1114.11 58.1348 1070.48 74.5763C1026.85 91.0178 988.883 119.69 961.129 157.157C933.375 194.625 917.012 239.3 913.999 285.829C910.985 332.359 921.451 378.771 944.14 419.505C966.83 460.239 1000.78 493.569 1041.93 515.5C1083.08 537.432 1129.67 547.036 1176.14 543.161C1212.85 540.101 1248.25 528.731 1279.71 510.066C1293.61 501.821 1295.93 483.276 1286.07 470.47C1276.21 457.664 1257.92 455.512 1243.71 463.218C1221.42 475.311 1196.76 482.716 1171.28 484.84C1136.03 487.78 1100.67 480.493 1069.46 463.855C1038.24 447.216 1012.48 421.93 995.267 391.027C978.053 360.123 970.114 324.912 972.4 289.611C974.686 254.311 987.1 220.418 1008.16 191.992C1029.21 163.567 1058.02 141.814 1091.12 129.341C1124.22 116.867 1160.22 114.201 1194.8 121.662C1219.8 127.056 1243.29 137.578 1263.84 152.446C1276.93 161.92 1295.35 162.145 1306.77 150.718Z" fill="white"/>
<path d="M2279.88 465.192C2292.08 475.515 2293.73 494.009 2281.46 504.244C2257.94 523.864 2229.32 536.762 2198.64 541.245C2158.36 547.132 2117.31 538.102 2083.22 515.852C2049.13 493.602 2024.34 459.665 2013.51 420.421C2002.68 381.177 2006.56 339.329 2024.42 302.745C2042.27 266.16 2072.88 237.358 2110.48 221.754C2148.08 206.15 2190.09 204.819 2228.6 218.01C2267.12 231.201 2299.49 258.007 2319.63 293.387C2334.96 320.329 2342.4 350.83 2341.4 381.444C2340.88 397.415 2325.29 407.489 2309.64 404.222C2294 400.956 2284.38 385.488 2283.43 369.537C2282.45 352.949 2277.68 336.675 2269.34 322.013C2256.18 298.892 2235.02 281.374 2209.85 272.754C2184.68 264.134 2157.23 265.004 2132.66 275.201C2108.09 285.398 2088.09 304.22 2076.42 328.128C2064.75 352.036 2062.21 379.383 2069.29 405.029C2076.37 430.675 2092.57 452.853 2114.85 467.393C2137.13 481.933 2163.95 487.834 2190.27 483.987C2206.97 481.547 2222.73 475.294 2236.41 465.866C2249.57 456.8 2267.69 454.869 2279.88 465.192Z" fill="white"/>
<path d="M1836.78 390.653C1822.82 384.762 1806.36 391.336 1803.95 406.297C1801.77 419.797 1802.02 433.651 1804.76 447.198C1809.33 469.77 1820.59 490.44 1837.09 506.51C1853.58 522.58 1874.54 533.304 1897.22 537.28C1910.83 539.667 1924.69 539.556 1938.13 537.032C1953.02 534.235 1959.17 517.61 1952.91 503.807C1946.66 490.004 1930.06 484.618 1914.91 484.09C1912.17 483.995 1909.42 483.709 1906.7 483.231C1894.88 481.16 1883.97 475.576 1875.38 467.207C1866.79 458.839 1860.93 448.074 1858.55 436.32C1858 433.606 1857.64 430.869 1857.48 428.127C1856.55 413.002 1850.74 396.544 1836.78 390.653Z" fill="white"/>
<path d="M1329.65 683.28C1321.29 683.28 1313.99 680.037 1307.76 673.552V676.88C1307.76 678.501 1307.16 679.867 1305.97 680.976C1304.86 682.085 1303.49 682.64 1301.87 682.64C1300.25 682.64 1298.89 682.085 1297.78 680.976C1296.67 679.867 1296.11 678.501 1296.11 676.88V593.808C1296.11 592.187 1296.67 590.821 1297.78 589.712C1298.89 588.517 1300.25 587.92 1301.87 587.92C1303.58 587.92 1304.99 588.475 1306.1 589.584C1307.21 590.693 1307.76 592.101 1307.76 593.808V625.168C1313.99 618.683 1321.29 615.44 1329.65 615.44C1334.94 615.44 1339.93 616.805 1344.62 619.536C1349.4 622.181 1353.24 626.107 1356.14 631.312C1359.13 636.432 1360.62 642.448 1360.62 649.36C1360.62 656.272 1359.13 662.331 1356.14 667.536C1353.24 672.656 1349.4 676.581 1344.62 679.312C1339.93 681.957 1334.94 683.28 1329.65 683.28ZM1327.98 672.4C1334.3 672.4 1339.38 670.395 1343.22 666.384C1347.06 662.373 1348.98 656.699 1348.98 649.36C1348.98 642.021 1347.06 636.347 1343.22 632.336C1339.38 628.325 1334.3 626.32 1327.98 626.32C1324.06 626.32 1320.35 627.216 1316.85 629.008C1313.43 630.715 1310.41 633.019 1307.76 635.92V662.8C1310.41 665.701 1313.43 668.048 1316.85 669.84C1320.35 671.547 1324.06 672.4 1327.98 672.4ZM1390.58 712.08C1389.04 712.08 1387.72 711.525 1386.61 710.416C1385.59 709.307 1385.08 707.984 1385.08 706.448C1385.08 705.765 1385.2 705.083 1385.46 704.4L1393.78 683.024L1369.72 624.4C1369.37 623.547 1369.2 622.736 1369.2 621.968C1369.2 620.347 1369.76 618.981 1370.87 617.872C1371.98 616.677 1373.34 616.08 1374.96 616.08C1376.16 616.08 1377.22 616.421 1378.16 617.104C1379.19 617.787 1379.91 618.64 1380.34 619.664L1400.05 668.56L1420.15 619.92C1421.26 617.36 1423.05 616.08 1425.52 616.08C1427.14 616.08 1428.51 616.677 1429.62 617.872C1430.73 618.981 1431.28 620.347 1431.28 621.968C1431.28 622.736 1431.16 623.461 1430.9 624.144L1395.96 708.112C1394.76 710.757 1392.97 712.08 1390.58 712.08Z" fill="white"/>
<path d="M1521.82 692.831V611.844L1501.33 618.519L1501.4 692.831H1521.75H1521.82Z" fill="white"/>
<path d="M1555.96 615.754C1555.97 616.796 1555.97 618.525 1555.97 618.525C1578.9 607.464 1605.88 623.424 1605.88 646.065C1605.88 668.706 1606.07 692.831 1606.07 692.831H1585.21V646.808C1585.21 631.218 1555.96 630.476 1555.96 646.808V692.831H1535.4V611.844H1555.96C1555.96 611.844 1555.94 614.711 1555.96 615.754Z" fill="white"/>
<path d="M1615.95 637.132C1615.95 619.076 1615.98 611.927 1616.13 611.868L1636.27 611.889L1636.27 661.765C1636.27 677.094 1666.05 677.539 1666.05 661.765L1666.05 611.92L1686.1 611.941V638.196C1686.09 653.575 1686 661.765 1686 661.765C1686 703.372 1616.13 703.223 1616.09 661.765C1616.09 661.765 1615.95 649.7 1615.95 637.132Z" fill="white"/>
<path d="M1718.18 578.088L1697.91 584.709L1697.91 692.776H1718.25L1718.18 578.088Z" fill="white"/>
<path d="M1835.04 633.958H1834.13V654.77C1834.13 662.935 1844.52 671.175 1856.62 672.856V692.776C1824.18 686.838 1814.76 669.839 1813.83 654.77L1813.98 591.329L1834.13 584.709V614.238H1856.62V633.958H1845.87H1835.04Z" fill="white"/>
<path d="M1731.24 636.929C1731.24 618.872 1731.28 614.173 1731.42 614.114L1751.56 614.135L1751.56 661.561C1751.56 676.89 1781.35 677.336 1781.35 661.561L1781.35 614.166L1801.39 614.187L1801.39 637.993C1801.39 653.371 1801.29 661.561 1801.29 661.561C1801.29 703.168 1731.43 703.02 1731.39 661.561C1731.39 661.561 1731.25 649.497 1731.24 636.929Z" fill="white"/>
<path fill-rule="evenodd" clip-rule="evenodd" d="M1933.49 664.055C1934.38 660.767 1934.86 657.306 1934.86 653.734C1934.86 632.128 1917.35 614.613 1895.74 614.613C1874.14 614.613 1856.62 632.128 1856.62 653.734C1856.62 675.339 1874.14 692.854 1895.74 692.854C1906.67 692.854 1916.55 688.374 1923.65 681.15L1913.94 672.099L1910.29 668.846C1909.51 670.274 1908.38 671.587 1906.94 672.706C1903.99 675.003 1899.99 676.294 1895.81 676.294C1891.64 676.294 1887.64 675.003 1884.69 672.706C1881.73 670.409 1880.08 667.294 1880.08 664.045H1895.81L1911.55 664.045C1911.55 664.049 1911.55 664.052 1911.55 664.055H1933.49ZM1911.55 646.607C1911.55 643.359 1909.9 640.243 1906.94 637.946C1903.99 635.649 1899.99 634.359 1895.82 634.359C1891.64 634.359 1887.64 635.649 1884.69 637.946C1881.74 640.243 1880.08 643.359 1880.08 646.607L1895.82 646.607H1911.55Z" fill="white" background="dark"/>
</svg>
