<svg width="3669" height="3669" viewBox="0 0 3669 3669" fill="none" xmlns="http://www.w3.org/2000/svg">
<path fill-rule="evenodd" clip-rule="evenodd" d="M414.781 2939.02C346.826 3082.22 407.825 3253.4 551.025 3321.35C694.225 3389.31 865.399 3328.31 933.354 3185.11L1203.39 2616.07H2652.07C2810.57 2616.07 2939.07 2487.57 2939.07 2329.07C2939.07 2170.56 2810.57 2042.07 2652.07 2042.07H1475.78L2098.35 730.109C2166.31 586.91 2105.31 415.735 1962.11 347.781C1818.91 279.826 1647.73 340.825 1579.78 484.025L414.781 2939.02Z" fill="white"/>
<path d="M2740 1414C2740 1572.51 2611.51 1701 2453 1701C2294.49 1701 2166 1572.51 2166 1414C2166 1255.49 2294.49 1127 2453 1127C2611.51 1127 2740 1255.49 2740 1414Z" fill="#A5A5A5"/>
</svg>
