<svg width="512" height="512" viewBox="0 0 512 512" fill="none" xmlns="http://www.w3.org/2000/svg">
<g clip-path="url(#clip0_446_52)">
<path d="M407.813 0H104.187C46.6461 0 0 47.0289 0 105.042V406.958C0 464.971 46.6461 512 104.187 512H407.813C465.354 512 512 464.971 512 406.958V105.042C512 47.0289 465.354 0 407.813 0Z" fill="white"/>
<path fill-rule="evenodd" clip-rule="evenodd" d="M372.875 138.125H138.125C127.304 138.125 118.562 146.867 118.562 157.688V353.312C118.562 364.133 127.304 372.875 138.125 372.875H372.875C383.696 372.875 392.438 364.133 392.438 353.312V157.688C392.438 146.867 383.696 138.125 372.875 138.125ZM138.125 118.562C116.484 118.562 99 136.046 99 157.688V353.312C99 374.954 116.484 392.438 138.125 392.438H372.875C394.516 392.438 412 374.954 412 353.312V157.688C412 136.046 394.516 118.562 372.875 118.562H138.125Z" fill="black"/>
<path d="M180 135H160V374H180V135Z" fill="black"/>
<path d="M284 135H264V374H284V135Z" fill="black"/>
<path d="M160 244V264H393V244H160Z" fill="black"/>
</g>
<defs>
<clipPath id="clip0_446_52">
<rect width="512" height="512" fill="white"/>
</clipPath>
</defs>
</svg>
