<svg width="512" height="512" viewBox="0 0 512 512" fill="none" xmlns="http://www.w3.org/2000/svg">
<g clip-path="url(#clip0_446_12)">
<path d="M407.813 0H104.187C46.6461 0 0 47.0289 0 105.042V406.958C0 464.971 46.6461 512 104.187 512H407.813C465.354 512 512 464.971 512 406.958V105.042C512 47.0289 465.354 0 407.813 0Z" fill="white"/>
<path d="M399.995 225.507C407.603 202.681 404.992 177.697 392.84 156.914C374.557 125.116 337.762 108.762 301.875 116.371C293.956 107.497 284.242 100.407 273.376 95.5712C262.51 90.7354 250.74 88.2641 238.846 88.3213C202.165 88.3213 169.572 111.942 158.216 146.807C134.594 151.69 114.266 166.453 102.342 187.349C83.9446 219.147 88.1465 259.122 112.79 286.377C105.181 309.204 107.793 334.189 119.944 354.857C138.228 386.769 175.023 403.122 211.023 395.513C226.923 413.456 249.862 423.791 273.938 423.677C310.619 423.677 343.212 400.056 354.569 365.191C378.191 360.308 398.518 345.545 410.329 324.649C428.84 292.851 424.639 252.876 399.995 225.621V225.507ZM373.875 167.93C381.143 180.649 383.869 195.526 381.37 209.948C380.916 209.608 380.008 209.154 379.44 208.813L312.664 170.2C310.983 169.251 309.086 168.752 307.156 168.752C305.226 168.752 303.328 169.251 301.648 170.2L223.402 215.4V182.239L288.02 144.876C318.115 127.501 356.499 137.835 373.875 167.93ZM223.402 236.863L256.336 217.785L289.269 236.863V274.908L256.336 293.986L223.402 274.908V236.863ZM238.733 110.238C253.497 110.238 267.692 115.349 279.049 124.775C278.594 125.002 277.686 125.57 277.004 125.911L210.229 164.41C206.822 166.341 204.777 169.975 204.777 173.949V264.347L176.045 247.766V173.04C176.045 138.289 204.096 110.239 238.846 110.126L238.733 110.238ZM121.42 198.366C128.802 185.646 140.272 175.88 154.127 170.77V250.151C154.127 254.125 156.172 257.646 159.579 259.69L237.711 304.775L208.865 321.469L144.361 284.22C114.38 266.845 104.045 228.46 121.42 198.365V198.366ZM139.023 344.069C131.642 331.463 129.029 316.473 131.528 302.05C131.982 302.391 132.891 302.845 133.458 303.186L200.234 341.798C201.915 342.747 203.812 343.246 205.742 343.246C207.673 343.246 209.57 342.747 211.25 341.798L289.383 296.599V329.76L224.765 367.01C194.67 384.271 156.285 374.05 138.91 344.069H139.023ZM274.052 401.76C259.402 401.76 245.093 396.65 233.85 387.224C234.542 386.864 235.224 386.486 235.894 386.088L302.67 347.59C306.077 345.659 308.235 342.025 308.121 338.05V247.766L336.853 264.346V338.958C336.853 373.709 308.689 401.873 274.052 401.873V401.76V401.76ZM391.477 313.633C384.095 326.353 372.511 336.119 358.77 341.116V261.734C358.77 257.76 356.726 254.125 353.319 252.195L275.074 206.996L303.806 190.416L368.424 227.664C398.518 245.04 408.74 283.425 391.364 313.52L391.478 313.633H391.477Z" fill="black"/>
</g>
<defs>
<clipPath id="clip0_446_12">
<rect width="512" height="512" fill="white"/>
</clipPath>
</defs>
</svg>
