<svg width="512" height="512" viewBox="0 0 512 512" fill="none" xmlns="http://www.w3.org/2000/svg">
<g clip-path="url(#clip0_446_19)">
<path d="M407.813 0H104.187C46.6461 0 0 47.0289 0 105.042V406.958C0 464.971 46.6461 512 104.187 512H407.813C465.354 512 512 464.971 512 406.958V105.042C512 47.0289 465.354 0 407.813 0Z" fill="white"/>
<path d="M163.686 162.184C112.046 162.184 70.1832 204.049 70.1832 255.692C70.1832 307.336 112.046 349.2 163.686 349.2C208.033 349.2 245.169 318.326 254.775 276.898H269.285C259.437 326.219 215.902 363.385 163.686 363.385C104.213 363.385 56 315.169 56 255.692C56 196.215 104.213 148 163.686 148C220.777 148 267.491 192.43 271.142 248.6H338.134L279.153 189.498L289.191 179.478L348.177 238.585L348.103 155.098L362.286 155.086L362.36 238.614L421.376 179.478L431.414 189.498L372.433 248.6H456V262.784H372.328L431.414 321.993L421.376 332.013L362.391 272.907L362.463 356.429L348.281 356.44L348.206 272.874L289.191 332.013L279.153 321.993L338.239 262.784H290.838V262.713H209.284V262.784H163.683V248.6H256.925C253.3 200.27 212.941 162.184 163.686 162.184Z" fill="black"/>
</g>
<defs>
<clipPath id="clip0_446_19">
<rect width="512" height="512" fill="white"/>
</clipPath>
</defs>
</svg>
