<svg width="512" height="512" viewBox="0 0 512 512" fill="none" xmlns="http://www.w3.org/2000/svg">
<g clip-path="url(#clip0_446_28)">
<path d="M407.813 0H104.187C46.6461 0 0 47.0289 0 105.042V406.958C0 464.971 46.6461 512 104.187 512H407.813C465.354 512 512 464.971 512 406.958V105.042C512 47.0289 465.354 0 407.813 0Z" fill="white"/>
<path fill-rule="evenodd" clip-rule="evenodd" d="M155.548 96L246.853 179.952V179.936V96.192H264.626V180.328L356.348 96V191.72H394V329.784H356.46V415.016L264.634 334.504V415.944H246.861V335.832L155.652 416V329.792H118V191.72H155.556V96H155.548ZM233.458 209.24H135.772V312.264H155.628V279.768L233.458 209.24ZM173.424 287.544V376.904L246.853 312.36V220.984L173.424 287.544ZM265.147 311.504V220.896L338.6 287.464V329.792H338.696V375.992L265.147 311.504ZM356.46 312.264H376.228V209.24H279.271L356.46 279.04V312.264ZM338.576 191.72V136.304L278.301 191.72H338.576ZM233.595 191.72H173.32V136.304L233.595 191.72Z" fill="url(#paint0_linear_446_28)"/>
</g>
<defs>
<linearGradient id="paint0_linear_446_28" x1="148.47" y1="76.88" x2="352.018" y2="417.333" gradientUnits="userSpaceOnUse">
<stop offset="1"/>
</linearGradient>
<clipPath id="clip0_446_28">
<rect width="512" height="512" fill="white"/>
</clipPath>
</defs>
</svg>
