<svg width="2897" height="778" viewBox="0 0 2897 778" fill="none" xmlns="http://www.w3.org/2000/svg">
<path d="M1898.49 517.006V352.994" stroke="#8DC53E" stroke-width="54" stroke-linecap="round"/>
<path d="M2547.49 379L2403.49 378" stroke="#8DC53E" stroke-width="54" stroke-linecap="round"/>
<path d="M2150.5 249.006L2071.49 247" stroke="#FEFDCD" stroke-width="54" stroke-linecap="round"/>
<path d="M2063.49 435L2064.52 134" stroke="#8DC53E" stroke-width="54" stroke-linecap="round"/>
<path d="M320 509.996L490.492 98" stroke="#8DC53E" stroke-width="59" stroke-linecap="round"/>
<path d="M493.104 97.5391L664.387 511.461" stroke="#FEFDCD" stroke-width="59" stroke-linecap="round"/>
<path d="M835.492 116.5C835.492 137.763 818.255 155 796.992 155C775.729 155 758.492 137.763 758.492 116.5C758.492 95.237 775.729 78 796.992 78C818.255 78 835.492 95.237 835.492 116.5Z" fill="#FEFDCD"/>
<path d="M796.492 513V241" stroke="#8DC53E" stroke-width="58" stroke-linecap="round"/>
<path d="M1079.49 377H937.492" stroke="#8DC53E" stroke-width="50" stroke-linecap="round"/>
<path d="M1381.49 318.125L1499.49 317.996" stroke="#8DC53E" stroke-width="54" stroke-linecap="round"/>
<path d="M1499.49 487V318" stroke="#FEFDCD" stroke-width="54" stroke-linecap="round"/>
<path d="M1928.49 378C1928.49 470.232 1853.72 545 1761.49 545C1669.26 545 1594.49 470.232 1594.49 378C1594.49 285.768 1669.26 211 1761.49 211C1853.72 211 1928.49 285.768 1928.49 378ZM1652.36 378C1652.36 438.273 1701.22 487.134 1761.49 487.134C1821.76 487.134 1870.63 438.273 1870.63 378C1870.63 317.727 1821.76 268.866 1761.49 268.866C1701.22 268.866 1652.36 317.727 1652.36 378Z" fill="#FEFDCD"/>
<path d="M1540.77 151.718C1552.2 140.29 1552.3 121.601 1539.58 111.632C1510.78 89.0653 1477.15 73.2249 1441.14 65.4554C1395.56 55.6208 1348.11 59.1348 1304.48 75.5763C1260.85 92.0178 1222.88 120.69 1195.13 158.157C1167.38 195.625 1151.01 240.3 1148 286.829C1144.99 333.359 1155.45 379.771 1178.14 420.505C1200.83 461.239 1234.78 494.569 1275.93 516.5C1317.08 538.432 1363.67 548.036 1410.14 544.161C1446.85 541.101 1482.25 529.731 1513.71 511.066C1527.61 502.821 1529.93 484.276 1520.07 471.47V471.47C1510.21 458.664 1491.92 456.512 1477.71 464.218C1455.42 476.311 1430.76 483.716 1405.28 485.84C1370.03 488.78 1334.67 481.493 1303.46 464.855C1272.24 448.216 1246.48 422.93 1229.27 392.027C1212.05 361.123 1204.11 325.912 1206.4 290.611C1208.69 255.311 1221.1 221.418 1242.16 192.992C1263.21 164.567 1292.02 142.814 1325.12 130.341C1358.22 117.867 1394.22 115.201 1428.8 122.662C1453.8 128.056 1477.29 138.578 1497.84 153.446C1510.93 162.92 1529.35 163.145 1540.77 151.718V151.718Z" fill="#FEFDCD"/>
<path d="M2513.88 466.192C2526.08 476.515 2527.73 495.009 2515.46 505.244C2491.94 524.864 2463.32 537.762 2432.64 542.245C2392.36 548.132 2351.31 539.102 2317.22 516.852C2283.13 494.602 2258.34 460.665 2247.51 421.421C2236.68 382.177 2240.56 340.329 2258.42 303.745C2276.27 267.16 2306.88 238.358 2344.48 222.754C2382.08 207.15 2424.09 205.819 2462.6 219.01C2501.12 232.201 2533.49 259.007 2553.63 294.387C2568.96 321.329 2576.4 351.83 2575.4 382.444C2574.88 398.415 2559.29 408.489 2543.64 405.222V405.222C2528 401.956 2518.38 386.488 2517.43 370.537C2516.45 353.949 2511.68 337.675 2503.34 323.013C2490.18 299.892 2469.02 282.374 2443.85 273.754C2418.68 265.134 2391.23 266.004 2366.66 276.201C2342.09 286.398 2322.09 305.22 2310.42 329.128C2298.75 353.036 2296.21 380.383 2303.29 406.029C2310.37 431.675 2326.57 453.853 2348.85 468.393C2371.13 482.933 2397.95 488.834 2424.27 484.987C2440.97 482.547 2456.73 476.294 2470.41 466.866C2483.57 457.8 2501.69 455.869 2513.88 466.192V466.192Z" fill="#FEFDCD"/>
<path d="M2070.78 391.653C2056.82 385.762 2040.36 392.336 2037.95 407.297C2035.77 420.797 2036.02 434.651 2038.76 448.198C2043.33 470.77 2054.59 491.44 2071.09 507.51C2087.58 523.58 2108.54 534.304 2131.22 538.28C2144.83 540.667 2158.69 540.556 2172.13 538.032C2187.02 535.235 2193.17 518.61 2186.91 504.807V504.807C2180.66 491.004 2164.06 485.618 2148.91 485.09C2146.17 484.995 2143.42 484.709 2140.7 484.231C2128.88 482.16 2117.97 476.576 2109.38 468.207C2100.79 459.839 2094.93 449.074 2092.55 437.32C2092 434.606 2091.64 431.869 2091.48 429.127C2090.55 414.002 2084.74 397.544 2070.78 391.653V391.653Z" fill="#FEFDCD"/>
<path d="M1563.65 684.28C1555.29 684.28 1547.99 681.037 1541.76 674.552V677.88C1541.76 679.501 1541.16 680.867 1539.97 681.976C1538.86 683.085 1537.49 683.64 1535.87 683.64C1534.25 683.64 1532.89 683.085 1531.78 681.976C1530.67 680.867 1530.11 679.501 1530.11 677.88V594.808C1530.11 593.187 1530.67 591.821 1531.78 590.712C1532.89 589.517 1534.25 588.92 1535.87 588.92C1537.58 588.92 1538.99 589.475 1540.1 590.584C1541.21 591.693 1541.76 593.101 1541.76 594.808V626.168C1547.99 619.683 1555.29 616.44 1563.65 616.44C1568.94 616.44 1573.93 617.805 1578.62 620.536C1583.4 623.181 1587.24 627.107 1590.14 632.312C1593.13 637.432 1594.62 643.448 1594.62 650.36C1594.62 657.272 1593.13 663.331 1590.14 668.536C1587.24 673.656 1583.4 677.581 1578.62 680.312C1573.93 682.957 1568.94 684.28 1563.65 684.28ZM1561.98 673.4C1568.3 673.4 1573.38 671.395 1577.22 667.384C1581.06 663.373 1582.98 657.699 1582.98 650.36C1582.98 643.021 1581.06 637.347 1577.22 633.336C1573.38 629.325 1568.3 627.32 1561.98 627.32C1558.06 627.32 1554.35 628.216 1550.85 630.008C1547.43 631.715 1544.41 634.019 1541.76 636.92V663.8C1544.41 666.701 1547.43 669.048 1550.85 670.84C1554.35 672.547 1558.06 673.4 1561.98 673.4ZM1624.58 713.08C1623.04 713.08 1621.72 712.525 1620.61 711.416C1619.59 710.307 1619.08 708.984 1619.08 707.448C1619.08 706.765 1619.2 706.083 1619.46 705.4L1627.78 684.024L1603.72 625.4C1603.37 624.547 1603.2 623.736 1603.2 622.968C1603.2 621.347 1603.76 619.981 1604.87 618.872C1605.98 617.677 1607.34 617.08 1608.96 617.08C1610.16 617.08 1611.22 617.421 1612.16 618.104C1613.19 618.787 1613.91 619.64 1614.34 620.664L1634.05 669.56L1654.15 620.92C1655.26 618.36 1657.05 617.08 1659.52 617.08C1661.14 617.08 1662.51 617.677 1663.62 618.872C1664.73 619.981 1665.28 621.347 1665.28 622.968C1665.28 623.736 1665.16 624.461 1664.9 625.144L1629.96 709.112C1628.76 711.757 1626.97 713.08 1624.58 713.08Z" fill="#FEFDCD"/>
<g clip-path="url(#clip0_241_39)">
<path fill-rule="evenodd" clip-rule="evenodd" d="M1839.68 624.488C1839.56 624.54 1839.52 628.613 1839.53 644.266C1839.53 655.161 1839.59 664.713 1839.65 665.62C1839.82 667.886 1840.55 671.545 1841.07 672.731C1841.14 672.872 1841.39 673.517 1841.63 674.162C1841.88 674.808 1842.13 675.445 1842.2 675.578C1842.27 675.711 1842.57 676.312 1842.87 676.914C1844.11 679.414 1846.41 682.66 1848.01 684.161C1848.25 684.387 1848.83 684.934 1849.3 685.377C1851.13 687.083 1854.21 689.189 1856.26 690.128C1856.79 690.371 1857.51 690.708 1857.86 690.876C1858.64 691.243 1861.9 692.303 1862.63 692.422C1862.91 692.468 1863.29 692.561 1863.47 692.629C1864.39 692.977 1866.71 693.173 1869.9 693.173C1873.23 693.173 1875.16 693 1876.65 692.569C1877.01 692.466 1877.65 692.298 1878.07 692.194C1878.88 691.998 1881.17 691.206 1882.06 690.819C1882.34 690.695 1882.66 690.557 1882.77 690.512C1882.87 690.466 1883.05 690.375 1883.15 690.309C1883.26 690.243 1883.79 689.982 1884.33 689.729C1884.87 689.475 1885.38 689.182 1885.47 689.076C1885.56 688.97 1885.69 688.883 1885.77 688.883C1885.93 688.883 1886.51 688.496 1888.15 687.298C1890.94 685.261 1893.52 682.579 1895.18 680.003C1895.39 679.684 1895.77 679.105 1896.03 678.716C1896.66 677.782 1897.91 675.278 1898.31 674.147C1899.04 672.104 1899.26 671.4 1899.45 670.543C1899.55 670.047 1899.7 669.51 1899.76 669.349C1899.83 669.188 1899.98 668.348 1900.11 667.483C1900.32 666.033 1900.34 664.28 1900.34 645.188L1900.34 624.467H1891.65H1882.96L1882.89 644.03C1882.82 663.292 1882.81 663.615 1882.54 665C1882.39 665.773 1882.18 666.642 1882.06 666.93C1880.87 669.874 1878.83 672.375 1876.47 673.755C1874.69 674.797 1873.73 675.148 1871.64 675.527C1869.62 675.891 1866.76 675.476 1864.82 674.537C1862.03 673.194 1859.56 670.792 1858.4 668.291C1857.92 667.254 1857.53 666.016 1857.41 665.137C1857.34 664.713 1857.29 655.479 1857.28 644.617C1857.27 632.142 1857.22 624.783 1857.14 624.636C1857.02 624.415 1856.59 624.404 1848.43 624.413C1843.71 624.419 1839.77 624.453 1839.68 624.488Z" fill="#8DC53E"/>
<path d="M1757.93 692.551V622.344L1740.16 628.13L1740.22 692.551H1757.86H1757.93Z" fill="#8DC53E"/>
<path d="M1795.59 644.284C1791.64 646.031 1788.31 649.979 1787.66 653.674L1787.52 692.551H1769.7V622.344H1787.52C1787.52 622.344 1787.51 624.83 1787.52 625.733C1787.53 626.637 1787.53 628.007 1787.53 628.071C1788.12 627.986 1787.88 628.046 1788.11 628.007C1788.47 627.944 1788.39 627.978 1789.02 627.754C1791.15 626.996 1793.46 626.369 1794.93 626.144C1795.57 626.047 1796.47 625.9 1796.95 625.817C1798 625.632 1803.47 625.711 1804.52 625.926C1804.91 626.007 1805.57 626.125 1806 626.188C1807.35 626.391 1809.1 626.876 1811.66 627.758C1812.08 627.904 1812.91 628.252 1813.5 628.53C1814.09 628.808 1814.6 629.036 1814.63 629.036C1814.66 629.036 1815.11 629.287 1815.62 629.593C1816.13 629.899 1816.82 630.302 1817.14 630.488C1817.47 630.674 1817.97 631.017 1818.26 631.251C1818.55 631.484 1819.07 631.877 1819.41 632.125C1820.79 633.133 1823.37 635.713 1824.34 637.055C1824.59 637.396 1825.06 638.009 1825.39 638.418C1826.26 639.486 1827.22 641.159 1828.46 643.773C1828.83 644.567 1829.72 647.058 1829.99 648.084C1830.15 648.678 1830.51 650.409 1830.8 652.01L1830.97 692.551H1812.88V652.654C1812.68 651.702 1811.6 649.764 1810.83 648.759C1809.43 646.904 1807.45 645.284 1805.64 644.517C1805.2 644.331 1804.78 644.137 1804.71 644.086C1804.64 644.036 1804.06 643.861 1803.42 643.697C1802.47 643.453 1801.93 643.401 1800.4 643.403C1798.39 643.406 1797 643.66 1795.59 644.284Z" fill="#8DC53E"/>
<path d="M1928.97 594.158L1911.4 599.898L1911.34 692.487H1928.97V594.158Z" fill="#FEFDCD"/>
<path fill-rule="evenodd" clip-rule="evenodd" d="M1940.65 623.803C1940.52 623.854 1940.49 627.928 1940.5 643.58C1940.5 654.476 1940.55 664.027 1940.62 664.934C1940.78 667.2 1941.52 670.859 1942.04 672.045C1942.1 672.187 1942.35 672.831 1942.6 673.477C1942.84 674.123 1943.1 674.76 1943.17 674.893C1943.24 675.025 1943.54 675.626 1943.84 676.228C1945.07 678.728 1947.37 681.975 1948.97 683.475C1949.21 683.701 1949.8 684.248 1950.27 684.691C1952.09 686.397 1955.18 688.504 1957.22 689.442C1957.75 689.685 1958.48 690.022 1958.83 690.19C1959.6 690.557 1962.87 691.617 1963.59 691.736C1963.88 691.783 1964.25 691.876 1964.43 691.943C1965.36 692.291 1967.67 692.487 1970.87 692.487C1974.2 692.487 1976.13 692.314 1977.62 691.883C1977.98 691.781 1978.61 691.612 1979.04 691.509C1979.84 691.312 1982.14 690.521 1983.03 690.133C1983.31 690.01 1983.63 689.871 1983.74 689.826C1983.84 689.781 1984.02 689.689 1984.12 689.623C1984.23 689.557 1984.76 689.296 1985.3 689.043C1985.84 688.79 1986.35 688.496 1986.44 688.39C1986.53 688.284 1986.66 688.197 1986.74 688.197C1986.9 688.197 1987.48 687.81 1989.12 686.612C1991.9 684.576 1994.49 681.893 1996.15 679.317C1996.35 678.998 1996.73 678.419 1997 678.03C1997.62 677.097 1998.87 674.593 1999.28 673.461C2000 671.418 2000.23 670.714 2000.41 669.857C2000.52 669.362 2000.66 668.825 2000.73 668.663C2000.8 668.502 2000.95 667.663 2001.08 666.797C2001.29 665.348 2001.3 663.594 2001.3 644.503L2001.3 623.782H1992.62H1983.93L1983.86 643.345C1983.79 662.607 1983.78 662.929 1983.51 664.314C1983.36 665.088 1983.14 665.956 1983.03 666.244C1981.84 669.188 1979.79 671.689 1977.44 673.07C1975.66 674.112 1974.7 674.463 1972.6 674.842C1970.59 675.205 1967.73 674.79 1965.78 673.851C1963 672.508 1960.53 670.106 1959.37 667.605C1958.89 666.568 1958.5 665.33 1958.37 664.452C1958.31 664.027 1958.26 654.793 1958.25 643.932C1958.24 631.456 1958.19 624.098 1958.11 623.95C1957.99 623.729 1957.56 623.718 1949.4 623.728C1944.68 623.733 1940.74 623.767 1940.65 623.803Z" fill="#FEFDCD"/>
<path d="M2011.89 634.179L2011.85 608.496L2029.36 594.158V623.782H2048.86V640.877H2039.54H2030.15H2029.36V641.544V649.832C2029.36 654.716 2029.41 658.345 2029.49 658.669C2029.55 658.97 2029.69 659.652 2029.79 660.183C2030 661.302 2030.37 662.635 2030.51 662.821C2030.57 662.892 2030.69 663.181 2030.78 663.465C2031.02 664.225 2032.06 666.178 2032.78 667.202C2033.49 668.233 2034.96 669.96 2035.65 670.585C2036.28 671.164 2038.47 672.924 2038.55 672.924C2038.58 672.924 2038.86 673.089 2039.17 673.291C2040.35 674.075 2042.69 675.135 2043.78 675.377C2044.02 675.433 2044.46 675.567 2044.76 675.675C2045.05 675.783 2045.6 675.902 2045.98 675.94C2046.67 676.008 2048.83 676.247 2048.89 676.262C2048.91 676.267 2048.92 680.185 2048.92 684.97V693.669L2047.6 693.609C2046.2 693.546 2042.79 693.175 2042.62 693.066C2042.56 693.029 2042 692.911 2041.38 692.803C2039.57 692.488 2037.73 691.908 2034.43 690.613C2031.62 689.514 2028.13 687.416 2025.66 685.345C2023.82 683.806 2020.63 680.557 2019.54 679.102C2017.73 676.717 2016.29 674.295 2015.23 671.879C2014.13 669.364 2014.07 669.229 2013.99 668.787C2013.94 668.55 2013.82 668.182 2013.73 667.969C2013.2 666.788 2012.78 665.105 2012.43 662.757C2012.32 662.084 2012.17 661.158 2012.09 660.698C2011.97 660.07 2011.92 653.457 2011.89 634.179Z" fill="#FEFDCD"/>
<path fill-rule="evenodd" clip-rule="evenodd" d="M2078.08 624.409C2075.45 624.629 2071.74 625.431 2069.45 626.273C2068.96 626.456 2068.36 626.663 2068.13 626.734C2067.27 626.995 2064.47 628.425 2062.82 629.439C2059.33 631.593 2057.28 633.383 2054.39 636.818C2054.11 637.155 2053.83 637.525 2053.76 637.641C2053.7 637.758 2053.61 637.882 2053.56 637.917C2053.39 638.056 2052.21 639.948 2052.21 639.948L2051.19 641.572C2050.83 642.251 2050.54 642.721 2050.27 643.323C2050.01 643.924 2049.71 644.531 2049.61 644.671C2049.52 644.81 2049.44 645.014 2049.44 645.123C2049.44 645.232 2049.33 645.523 2049.2 645.77C2049.07 646.017 2048.91 646.421 2048.86 646.669C2048.8 646.917 2048.66 647.351 2048.53 647.634C2048.41 647.917 2048.24 648.41 2048.16 648.728C2047.39 651.649 2047.16 652.96 2046.85 656.193C2046.54 659.462 2047.12 665.104 2048.09 668.162C2048.68 670.023 2049.09 671.198 2049.19 671.309C2049.26 671.376 2049.31 671.515 2049.31 671.617C2049.31 671.953 2051.05 675.5 2051.64 676.377C2051.87 676.708 2052.2 677.239 2052.37 677.558C2052.55 677.876 2052.84 678.311 2053.01 678.523C2053.18 678.735 2053.67 679.372 2054.09 679.939C2055.02 681.184 2058.09 684.314 2059.16 685.103C2060.21 685.879 2060.48 686.091 2060.68 686.263C2060.86 686.419 2062.58 687.554 2063.02 687.797C2063.16 687.877 2063.48 688.067 2063.72 688.22C2065.86 689.535 2070.34 691.312 2072.41 691.662C2072.69 691.71 2073.07 691.821 2073.25 691.909C2073.43 691.997 2074.09 692.138 2074.73 692.222C2075.37 692.306 2076.1 692.431 2076.37 692.5C2077.25 692.73 2081.21 692.859 2083.53 692.734C2084.76 692.668 2085.8 692.588 2085.85 692.556C2085.9 692.525 2086.55 692.407 2087.29 692.294C2088.02 692.18 2088.89 692.007 2089.21 691.908C2089.75 691.74 2090.22 691.606 2092.1 691.083C2092.53 690.965 2092.99 690.806 2093.13 690.73C2093.27 690.654 2093.56 690.553 2093.78 690.506C2094.23 690.404 2094.52 690.279 2096.18 689.471C2098.26 688.458 2100.58 687.007 2102.52 685.497C2103.8 684.51 2105.68 682.727 2105.68 682.512C2105.68 682.437 2105.04 681.77 2104.26 681.029C2103.48 680.288 2102.13 678.986 2101.26 678.137C2100.39 677.287 2099.27 676.245 2098.79 675.82C2098.3 675.395 2097.18 674.343 2096.29 673.481C2094.41 671.659 2093.55 670.869 2093.44 670.867C2093.39 670.866 2092.87 671.275 2092.28 671.776C2090.96 672.889 2090.35 673.311 2089 674.03C2087.79 674.671 2086.86 675.047 2085.86 675.3C2085.47 675.398 2084.82 675.568 2084.42 675.679C2083.35 675.969 2078.93 675.977 2077.7 675.691C2073.35 674.676 2069.7 672.268 2066.91 668.568C2066.64 668.216 2066.43 667.863 2066.43 667.782C2066.43 667.701 2066.24 667.178 2066.43 667.004H2067.11H2091.24H2115.29V661.051C2115.2 654.972 2115.15 654.277 2114.58 651.367C2114.21 649.476 2113.61 647.358 2113.15 646.347C2113.09 646.206 2112.99 645.945 2112.95 645.768C2112.9 645.591 2112.61 644.906 2112.29 644.245C2111.98 643.585 2111.73 643.018 2111.73 642.985C2111.73 642.953 2111.26 642.112 2110.69 641.116C2109.53 639.096 2108.2 637.263 2106.65 635.547C2105.44 634.207 2102.91 631.864 2102.16 631.392C2101.88 631.211 2101.51 630.936 2101.34 630.779C2100.84 630.317 2098.02 628.651 2096.26 627.78C2093.81 626.564 2091.37 625.729 2088.64 625.173C2087.95 625.031 2087.32 624.878 2087.25 624.835C2086.7 624.497 2080.49 624.208 2078.08 624.409ZM2074.08 642.692C2075.37 642.084 2076.54 641.718 2078.27 641.38C2080.72 640.995 2082.04 641.028 2084.32 641.451C2087.98 642.219 2091.31 644.138 2093.85 646.949C2094.94 648.14 2095.33 648.846 2096.16 650.144H2095.08H2081.09H2067.11C2068.09 647.957 2068.72 646.899 2069.94 645.343C2071.45 644.105 2072.35 643.511 2074.08 642.692Z" fill="#FEFDCD"/>
</g>
<defs>
<clipPath id="clip0_241_39">
<rect x="1704" y="580" width="445.826" height="126" rx="16.0878" fill="white"/>
</clipPath>
</defs>
</svg>
